<mxfile host="app.diagrams.net" agent="Mozilla/5.0 (X11; Ubuntu; Linux x86_64; rv:136.0) Gecko/20100101 Firefox/136.0" version="26.1.3">
  <diagram name="Page-1" id="uuAKBDWtx0nbvXclEw1l">
    <mxGraphModel dx="2524" dy="910" grid="1" gridSize="10" guides="1" tooltips="1" connect="1" arrows="1" fold="1" page="1" pageScale="1" pageWidth="850" pageHeight="1100" math="0" shadow="0">
      <root>
        <mxCell id="0" />
        <mxCell id="1" parent="0" />
        <mxCell id="7qtRjKIU-RaxOu4gR9cX-1" value="&lt;i&gt;Message&lt;/i&gt;" style="swimlane;fontStyle=0;childLayout=stackLayout;horizontal=1;startSize=30;horizontalStack=0;resizeParent=1;resizeParentMax=0;resizeLast=0;collapsible=1;marginBottom=0;whiteSpace=wrap;html=1;" vertex="1" parent="1">
          <mxGeometry x="400" y="245" width="140" height="170" as="geometry" />
        </mxCell>
        <mxCell id="7qtRjKIU-RaxOu4gR9cX-2" value="&lt;div&gt;# clair : String&lt;/div&gt;&lt;div&gt;# chiffre : String&lt;/div&gt;&lt;div&gt;# encode : String&lt;/div&gt;&lt;div&gt;- cle : Cle*&lt;/div&gt;&lt;div&gt;&lt;br&gt;&lt;/div&gt;&lt;div&gt;+ setCle(cle : Cle*) : void&lt;/div&gt;&lt;div&gt;+ getChiffre() : String&lt;/div&gt;&lt;div&gt;+ getEncode() : String&lt;/div&gt;&lt;div&gt;&lt;br&gt;&lt;/div&gt;" style="text;strokeColor=none;fillColor=none;align=left;verticalAlign=middle;spacingLeft=4;spacingRight=4;overflow=hidden;points=[[0,0.5],[1,0.5]];portConstraint=eastwest;rotatable=0;whiteSpace=wrap;html=1;" vertex="1" parent="7qtRjKIU-RaxOu4gR9cX-1">
          <mxGeometry y="30" width="140" height="140" as="geometry" />
        </mxCell>
        <mxCell id="7qtRjKIU-RaxOu4gR9cX-28" value="" style="endArrow=none;html=1;rounded=0;entryX=1;entryY=0.45;entryDx=0;entryDy=0;entryPerimeter=0;exitX=0;exitY=0.45;exitDx=0;exitDy=0;exitPerimeter=0;" edge="1" parent="7qtRjKIU-RaxOu4gR9cX-1" source="7qtRjKIU-RaxOu4gR9cX-2" target="7qtRjKIU-RaxOu4gR9cX-2">
          <mxGeometry width="50" height="50" relative="1" as="geometry">
            <mxPoint x="-130" y="210" as="sourcePoint" />
            <mxPoint x="-80" y="160" as="targetPoint" />
          </mxGeometry>
        </mxCell>
        <mxCell id="7qtRjKIU-RaxOu4gR9cX-5" value="&lt;div&gt;&amp;lt;&amp;lt;interface&amp;gt;&amp;gt;&lt;/div&gt;&lt;div&gt;IChiffrable&lt;/div&gt;" style="swimlane;fontStyle=0;childLayout=stackLayout;horizontal=1;startSize=30;horizontalStack=0;resizeParent=1;resizeParentMax=0;resizeLast=0;collapsible=1;marginBottom=0;whiteSpace=wrap;html=1;" vertex="1" parent="1">
          <mxGeometry x="70" y="660" width="140" height="80" as="geometry" />
        </mxCell>
        <mxCell id="7qtRjKIU-RaxOu4gR9cX-6" value="&lt;div&gt;&lt;br&gt;&lt;/div&gt;&lt;div&gt;+ chiffrer() : String&lt;/div&gt;&lt;div&gt;+ dechiffrer() : String&lt;/div&gt;" style="text;strokeColor=none;fillColor=none;align=left;verticalAlign=middle;spacingLeft=4;spacingRight=4;overflow=hidden;points=[[0,0.5],[1,0.5]];portConstraint=eastwest;rotatable=0;whiteSpace=wrap;html=1;" vertex="1" parent="7qtRjKIU-RaxOu4gR9cX-5">
          <mxGeometry y="30" width="140" height="50" as="geometry" />
        </mxCell>
        <mxCell id="7qtRjKIU-RaxOu4gR9cX-17" value="" style="endArrow=none;html=1;rounded=0;entryX=1;entryY=0.32;entryDx=0;entryDy=0;entryPerimeter=0;exitX=0;exitY=0.3;exitDx=0;exitDy=0;exitPerimeter=0;" edge="1" parent="7qtRjKIU-RaxOu4gR9cX-5" source="7qtRjKIU-RaxOu4gR9cX-6" target="7qtRjKIU-RaxOu4gR9cX-6">
          <mxGeometry width="50" height="50" relative="1" as="geometry">
            <mxPoint x="-140" y="90" as="sourcePoint" />
            <mxPoint x="-90" y="40" as="targetPoint" />
          </mxGeometry>
        </mxCell>
        <mxCell id="7qtRjKIU-RaxOu4gR9cX-9" value="&lt;div&gt;&amp;lt;&amp;lt;interface&amp;gt;&amp;gt;&lt;/div&gt;&lt;div&gt;IEncodable&lt;/div&gt;" style="swimlane;fontStyle=0;childLayout=stackLayout;horizontal=1;startSize=30;horizontalStack=0;resizeParent=1;resizeParentMax=0;resizeLast=0;collapsible=1;marginBottom=0;whiteSpace=wrap;html=1;" vertex="1" parent="1">
          <mxGeometry x="250" y="60" width="140" height="80" as="geometry" />
        </mxCell>
        <mxCell id="7qtRjKIU-RaxOu4gR9cX-10" value="&lt;div&gt;&lt;br&gt;&lt;/div&gt;&lt;div&gt;+ encoder() : String&lt;/div&gt;&lt;div&gt;+ decoder() : String&lt;/div&gt;" style="text;strokeColor=none;fillColor=none;align=left;verticalAlign=middle;spacingLeft=4;spacingRight=4;overflow=hidden;points=[[0,0.5],[1,0.5]];portConstraint=eastwest;rotatable=0;whiteSpace=wrap;html=1;" vertex="1" parent="7qtRjKIU-RaxOu4gR9cX-9">
          <mxGeometry y="30" width="140" height="50" as="geometry" />
        </mxCell>
        <mxCell id="7qtRjKIU-RaxOu4gR9cX-18" value="" style="endArrow=none;html=1;rounded=0;entryX=1;entryY=0.3;entryDx=0;entryDy=0;entryPerimeter=0;exitX=0;exitY=0.3;exitDx=0;exitDy=0;exitPerimeter=0;" edge="1" parent="7qtRjKIU-RaxOu4gR9cX-9" source="7qtRjKIU-RaxOu4gR9cX-10" target="7qtRjKIU-RaxOu4gR9cX-10">
          <mxGeometry width="50" height="50" relative="1" as="geometry">
            <mxPoint x="-100" y="190" as="sourcePoint" />
            <mxPoint x="-50" y="140" as="targetPoint" />
          </mxGeometry>
        </mxCell>
        <mxCell id="7qtRjKIU-RaxOu4gR9cX-44" style="edgeStyle=orthogonalEdgeStyle;rounded=0;orthogonalLoop=1;jettySize=auto;html=1;exitX=0.5;exitY=1;exitDx=0;exitDy=0;entryX=0.5;entryY=0;entryDx=0;entryDy=0;" edge="1" parent="1" source="7qtRjKIU-RaxOu4gR9cX-13" target="7qtRjKIU-RaxOu4gR9cX-5">
          <mxGeometry relative="1" as="geometry" />
        </mxCell>
        <mxCell id="7qtRjKIU-RaxOu4gR9cX-13" value="Cle" style="swimlane;fontStyle=0;childLayout=stackLayout;horizontal=1;startSize=30;horizontalStack=0;resizeParent=1;resizeParentMax=0;resizeLast=0;collapsible=1;marginBottom=0;whiteSpace=wrap;html=1;" vertex="1" parent="1">
          <mxGeometry x="70" y="270" width="140" height="120" as="geometry" />
        </mxCell>
        <mxCell id="7qtRjKIU-RaxOu4gR9cX-14" value="&lt;div&gt;- cle : int ou String // Possible en C++ avec std::variant&lt;/div&gt;&lt;div&gt;&lt;br&gt;&lt;/div&gt;&lt;div&gt;+ getCle() : &lt;br&gt;&lt;/div&gt;std::variant" style="text;strokeColor=none;fillColor=none;align=left;verticalAlign=middle;spacingLeft=4;spacingRight=4;overflow=hidden;points=[[0,0.5],[1,0.5]];portConstraint=eastwest;rotatable=0;whiteSpace=wrap;html=1;" vertex="1" parent="7qtRjKIU-RaxOu4gR9cX-13">
          <mxGeometry y="30" width="140" height="90" as="geometry" />
        </mxCell>
        <mxCell id="7qtRjKIU-RaxOu4gR9cX-19" value="" style="endArrow=open;endFill=1;endSize=12;html=1;rounded=0;exitX=0;exitY=0.5;exitDx=0;exitDy=0;entryX=1;entryY=0.5;entryDx=0;entryDy=0;" edge="1" parent="1" source="7qtRjKIU-RaxOu4gR9cX-2" target="7qtRjKIU-RaxOu4gR9cX-14">
          <mxGeometry width="160" relative="1" as="geometry">
            <mxPoint x="340" y="470" as="sourcePoint" />
            <mxPoint x="500" y="470" as="targetPoint" />
          </mxGeometry>
        </mxCell>
        <mxCell id="7qtRjKIU-RaxOu4gR9cX-20" value="Fichier" style="swimlane;fontStyle=0;childLayout=stackLayout;horizontal=1;startSize=30;horizontalStack=0;resizeParent=1;resizeParentMax=0;resizeLast=0;collapsible=1;marginBottom=0;whiteSpace=wrap;html=1;" vertex="1" parent="1">
          <mxGeometry x="-220" y="280" width="140" height="170" as="geometry" />
        </mxCell>
        <mxCell id="7qtRjKIU-RaxOu4gR9cX-21" value="&lt;div&gt;- nom : String&lt;/div&gt;&lt;div&gt;- fichier : FILE*&lt;/div&gt;&lt;div&gt;&lt;br&gt;&lt;/div&gt;&lt;div&gt;+ ecrire(texte : String) : void&lt;/div&gt;&lt;div&gt;+ lire() : String&lt;/div&gt;&lt;div&gt;+ effacerContenu() : void&lt;/div&gt;&lt;div&gt;+ fermer() : void&lt;/div&gt;" style="text;strokeColor=none;fillColor=none;align=left;verticalAlign=middle;spacingLeft=4;spacingRight=4;overflow=hidden;points=[[0,0.5],[1,0.5]];portConstraint=eastwest;rotatable=0;whiteSpace=wrap;html=1;" vertex="1" parent="7qtRjKIU-RaxOu4gR9cX-20">
          <mxGeometry y="30" width="140" height="140" as="geometry" />
        </mxCell>
        <mxCell id="7qtRjKIU-RaxOu4gR9cX-27" value="" style="endArrow=none;html=1;rounded=0;entryX=1;entryY=0.3;entryDx=0;entryDy=0;entryPerimeter=0;exitX=0;exitY=0.3;exitDx=0;exitDy=0;exitPerimeter=0;" edge="1" parent="7qtRjKIU-RaxOu4gR9cX-20" source="7qtRjKIU-RaxOu4gR9cX-21" target="7qtRjKIU-RaxOu4gR9cX-21">
          <mxGeometry width="50" height="50" relative="1" as="geometry">
            <mxPoint x="-70" y="130" as="sourcePoint" />
            <mxPoint x="-20" y="80" as="targetPoint" />
          </mxGeometry>
        </mxCell>
        <mxCell id="7qtRjKIU-RaxOu4gR9cX-46" style="edgeStyle=orthogonalEdgeStyle;rounded=0;orthogonalLoop=1;jettySize=auto;html=1;exitX=0.5;exitY=1;exitDx=0;exitDy=0;entryX=0.5;entryY=0;entryDx=0;entryDy=0;" edge="1" parent="1" source="7qtRjKIU-RaxOu4gR9cX-33" target="7qtRjKIU-RaxOu4gR9cX-5">
          <mxGeometry relative="1" as="geometry" />
        </mxCell>
        <mxCell id="7qtRjKIU-RaxOu4gR9cX-33" value="MXOR" style="swimlane;fontStyle=0;childLayout=stackLayout;horizontal=1;startSize=30;horizontalStack=0;resizeParent=1;resizeParentMax=0;resizeLast=0;collapsible=1;marginBottom=0;whiteSpace=wrap;html=1;" vertex="1" parent="1">
          <mxGeometry x="400" y="500" width="140" height="60" as="geometry" />
        </mxCell>
        <mxCell id="7qtRjKIU-RaxOu4gR9cX-34" value="&lt;div&gt;&lt;br&gt;&lt;/div&gt;" style="text;strokeColor=none;fillColor=none;align=left;verticalAlign=middle;spacingLeft=4;spacingRight=4;overflow=hidden;points=[[0,0.5],[1,0.5]];portConstraint=eastwest;rotatable=0;whiteSpace=wrap;html=1;" vertex="1" parent="7qtRjKIU-RaxOu4gR9cX-33">
          <mxGeometry y="30" width="140" height="30" as="geometry" />
        </mxCell>
        <mxCell id="7qtRjKIU-RaxOu4gR9cX-47" style="edgeStyle=orthogonalEdgeStyle;rounded=0;orthogonalLoop=1;jettySize=auto;html=1;exitX=0.5;exitY=1;exitDx=0;exitDy=0;entryX=0.5;entryY=0;entryDx=0;entryDy=0;" edge="1" parent="1" source="7qtRjKIU-RaxOu4gR9cX-35" target="7qtRjKIU-RaxOu4gR9cX-5">
          <mxGeometry relative="1" as="geometry" />
        </mxCell>
        <mxCell id="7qtRjKIU-RaxOu4gR9cX-35" value="MVigenere" style="swimlane;fontStyle=0;childLayout=stackLayout;horizontal=1;startSize=30;horizontalStack=0;resizeParent=1;resizeParentMax=0;resizeLast=0;collapsible=1;marginBottom=0;whiteSpace=wrap;html=1;" vertex="1" parent="1">
          <mxGeometry x="550" y="500" width="140" height="60" as="geometry" />
        </mxCell>
        <mxCell id="7qtRjKIU-RaxOu4gR9cX-36" value="&lt;div&gt;&lt;br&gt;&lt;/div&gt;" style="text;strokeColor=none;fillColor=none;align=left;verticalAlign=middle;spacingLeft=4;spacingRight=4;overflow=hidden;points=[[0,0.5],[1,0.5]];portConstraint=eastwest;rotatable=0;whiteSpace=wrap;html=1;" vertex="1" parent="7qtRjKIU-RaxOu4gR9cX-35">
          <mxGeometry y="30" width="140" height="30" as="geometry" />
        </mxCell>
        <mxCell id="7qtRjKIU-RaxOu4gR9cX-40" style="edgeStyle=orthogonalEdgeStyle;rounded=0;orthogonalLoop=1;jettySize=auto;html=1;exitX=0.5;exitY=0;exitDx=0;exitDy=0;entryX=0.5;entryY=1;entryDx=0;entryDy=0;" edge="1" parent="1" source="7qtRjKIU-RaxOu4gR9cX-37" target="7qtRjKIU-RaxOu4gR9cX-1">
          <mxGeometry relative="1" as="geometry" />
        </mxCell>
        <mxCell id="7qtRjKIU-RaxOu4gR9cX-45" style="edgeStyle=orthogonalEdgeStyle;rounded=0;orthogonalLoop=1;jettySize=auto;html=1;exitX=0.5;exitY=1;exitDx=0;exitDy=0;entryX=0.5;entryY=0;entryDx=0;entryDy=0;" edge="1" parent="1" source="7qtRjKIU-RaxOu4gR9cX-37" target="7qtRjKIU-RaxOu4gR9cX-5">
          <mxGeometry relative="1" as="geometry" />
        </mxCell>
        <mxCell id="7qtRjKIU-RaxOu4gR9cX-37" value="MCesar" style="swimlane;fontStyle=0;childLayout=stackLayout;horizontal=1;startSize=30;horizontalStack=0;resizeParent=1;resizeParentMax=0;resizeLast=0;collapsible=1;marginBottom=0;whiteSpace=wrap;html=1;" vertex="1" parent="1">
          <mxGeometry x="250" y="500" width="140" height="60" as="geometry" />
        </mxCell>
        <mxCell id="7qtRjKIU-RaxOu4gR9cX-38" value="&lt;div&gt;&lt;br&gt;&lt;/div&gt;" style="text;strokeColor=none;fillColor=none;align=left;verticalAlign=middle;spacingLeft=4;spacingRight=4;overflow=hidden;points=[[0,0.5],[1,0.5]];portConstraint=eastwest;rotatable=0;whiteSpace=wrap;html=1;" vertex="1" parent="7qtRjKIU-RaxOu4gR9cX-37">
          <mxGeometry y="30" width="140" height="30" as="geometry" />
        </mxCell>
        <mxCell id="7qtRjKIU-RaxOu4gR9cX-41" style="edgeStyle=orthogonalEdgeStyle;rounded=0;orthogonalLoop=1;jettySize=auto;html=1;entryX=0.5;entryY=1.007;entryDx=0;entryDy=0;entryPerimeter=0;" edge="1" parent="1" source="7qtRjKIU-RaxOu4gR9cX-33" target="7qtRjKIU-RaxOu4gR9cX-2">
          <mxGeometry relative="1" as="geometry" />
        </mxCell>
        <mxCell id="7qtRjKIU-RaxOu4gR9cX-42" style="edgeStyle=orthogonalEdgeStyle;rounded=0;orthogonalLoop=1;jettySize=auto;html=1;exitX=0.5;exitY=0;exitDx=0;exitDy=0;entryX=0.507;entryY=1;entryDx=0;entryDy=0;entryPerimeter=0;" edge="1" parent="1" source="7qtRjKIU-RaxOu4gR9cX-35" target="7qtRjKIU-RaxOu4gR9cX-2">
          <mxGeometry relative="1" as="geometry" />
        </mxCell>
      </root>
    </mxGraphModel>
  </diagram>
</mxfile>
